# xmcd
#
# Track frame offsets: 
#        150
#        27576
#        51082
#        81086
#        109909
#        132190
#        150549
#
# Disc length: 2870 seconds
#
# Revision: 0
# Processed by: cddbd v1.5.2PL0 Copyright (c) Steve Scherf et al.
# Submitted via: ExactAudioCopy v1.1
#
DISCID=540b3407
DTITLE=Status Quo - Quo Live!  CD2
DYEAR=1976
DGENRE=Rock
TTITLE0=Roll Over Lay Down
TTITLE1=Big Fat Mama
TTITLE2=Caroline
TTITLE3=Bye Bye Johnny
TTITLE4=Rain
TTITLE5=Don't Waste My Time
TTITLE6=Roadhouse Blues
EXTD=
EXTT0=
EXTT1=
EXTT2=
EXTT3=
EXTT4=
EXTT5=
EXTT6=
PLAYORDER=
